<?xml version="1.0" encoding="UTF-8" standalone="no"?>
<!DOCTYPE svg PUBLIC "-//W3C//DTD SVG 1.1//EN"
 "http://www.w3.org/Graphics/SVG/1.1/DTD/svg11.dtd">
<!-- Generated by graphviz version 2.40.1 (20161225.0304)
 -->
<!-- Title: dependencies Pages: 1 -->
<svg width="1164pt" height="284pt"
 viewBox="0.00 0.00 1164.00 284.00" xmlns="http://www.w3.org/2000/svg" xmlns:xlink="http://www.w3.org/1999/xlink">
<g id="graph0" class="graph" transform="scale(1 1) rotate(0) translate(4 280)">
<title>dependencies</title>
<polygon fill="#ffffff" stroke="transparent" points="-4,4 -4,-280 1160,-280 1160,4 -4,4"/>
<text text-anchor="start" x="557.0091" y="-42.4" font-family="sans-serif" font-weight="bold" font-size="14.00" fill="#000000">Legend</text>
<polygon fill="#ffffb3" stroke="transparent" points="344,-10 344,-30 364,-30 364,-10 344,-10"/>
<text text-anchor="start" x="367.629" y="-15.4" font-family="sans-serif" font-size="14.00" fill="#000000"> &#160;Declarations</text>
<polygon fill="#8dd3c7" stroke="transparent" points="457,-10 457,-30 477,-30 477,-10 457,-10"/>
<text text-anchor="start" x="480.7251" y="-15.4" font-family="sans-serif" font-size="14.00" fill="#000000"> &#160;Module</text>
<polygon fill="#80b1d3" stroke="transparent" points="543,-10 543,-30 563,-30 563,-10 543,-10"/>
<text text-anchor="start" x="566.7812" y="-15.4" font-family="sans-serif" font-size="14.00" fill="#000000"> &#160;Bootstrap</text>
<polygon fill="#fdb462" stroke="transparent" points="640,-10 640,-30 660,-30 660,-10 640,-10"/>
<text text-anchor="start" x="663.6732" y="-15.4" font-family="sans-serif" font-size="14.00" fill="#000000"> &#160;Providers</text>
<polygon fill="#fb8072" stroke="transparent" points="736,-10 736,-30 756,-30 756,-10 736,-10"/>
<text text-anchor="start" x="759.7258" y="-15.4" font-family="sans-serif" font-size="14.00" fill="#000000"> &#160;Exports</text>
<g id="clust1" class="cluster">
<title>cluster_AppModule</title>
<polygon fill="none" stroke="#000000" stroke-dasharray="1,5" points="8,-70 8,-268 1148,-268 1148,-70 8,-70"/>
</g>
<g id="clust2" class="cluster">
<title>cluster_AppModule_declarations</title>
<polygon fill="none" stroke="#000000" points="382,-78 382,-130 1140,-130 1140,-78 382,-78"/>
</g>
<g id="clust8" class="cluster">
<title>cluster_AppModule_imports</title>
<polygon fill="none" stroke="#000000" points="246,-78 246,-130 374,-130 374,-78 246,-78"/>
</g>
<g id="clust10" class="cluster">
<title>cluster_AppModule_bootstrap</title>
<polygon fill="none" stroke="#000000" points="556,-208 556,-260 680,-260 680,-208 556,-208"/>
</g>
<g id="clust11" class="cluster">
<title>cluster_AppModule_providers</title>
<polygon fill="none" stroke="#000000" points="16,-78 16,-130 238,-130 238,-78 16,-78"/>
</g>
<!-- AppComponent -->
<g id="node1" class="node">
<title>AppComponent</title>
<polygon fill="#ffffb3" stroke="#000000" points="1131.9399,-122 1026.0601,-122 1026.0601,-86 1131.9399,-86 1131.9399,-122"/>
<text text-anchor="middle" x="1079" y="-99.8" font-family="Times,serif" font-size="14.00" fill="#000000">AppComponent</text>
</g>
<!-- AppModule -->
<g id="node6" class="node">
<title>AppModule</title>
<polygon fill="#8dd3c7" stroke="#000000" points="659.6571,-187 656.6571,-191 635.6571,-191 632.6571,-187 576.3429,-187 576.3429,-151 659.6571,-151 659.6571,-187"/>
<text text-anchor="middle" x="618" y="-164.8" font-family="Times,serif" font-size="14.00" fill="#000000">AppModule</text>
</g>
<!-- AppComponent&#45;&gt;AppModule -->
<g id="edge1" class="edge">
<title>AppComponent&#45;&gt;AppModule</title>
<path fill="none" stroke="#000000" d="M1079,-122.2921C1079,-144.2057 1079,-178 1079,-178 1079,-178 669.7237,-178 669.7237,-178"/>
<polygon fill="#000000" stroke="#000000" points="669.7238,-174.5001 659.7237,-178 669.7237,-181.5001 669.7238,-174.5001"/>
</g>
<!-- NotesListComponent -->
<g id="node2" class="node">
<title>NotesListComponent</title>
<polygon fill="#ffffb3" stroke="#000000" points="1007.7674,-122 872.2326,-122 872.2326,-86 1007.7674,-86 1007.7674,-122"/>
<text text-anchor="middle" x="940" y="-99.8" font-family="Times,serif" font-size="14.00" fill="#000000">NotesListComponent</text>
</g>
<!-- NotesListComponent&#45;&gt;AppModule -->
<g id="edge2" class="edge">
<title>NotesListComponent&#45;&gt;AppModule</title>
<path fill="none" stroke="#000000" d="M940,-122.1061C940,-141.3391 940,-169 940,-169 940,-169 669.7658,-169 669.7658,-169"/>
<polygon fill="#000000" stroke="#000000" points="669.7658,-165.5001 659.7658,-169 669.7657,-172.5001 669.7658,-165.5001"/>
</g>
<!-- NoteDetailsComponent -->
<g id="node3" class="node">
<title>NoteDetailsComponent</title>
<polygon fill="#ffffb3" stroke="#000000" points="854.1965,-122 705.8035,-122 705.8035,-86 854.1965,-86 854.1965,-122"/>
<text text-anchor="middle" x="780" y="-99.8" font-family="Times,serif" font-size="14.00" fill="#000000">NoteDetailsComponent</text>
</g>
<!-- NoteDetailsComponent&#45;&gt;AppModule -->
<g id="edge3" class="edge">
<title>NoteDetailsComponent&#45;&gt;AppModule</title>
<path fill="none" stroke="#000000" d="M780,-122.027C780,-138.3976 780,-160 780,-160 780,-160 669.719,-160 669.719,-160"/>
<polygon fill="#000000" stroke="#000000" points="669.7191,-156.5001 659.719,-160 669.719,-163.5001 669.7191,-156.5001"/>
</g>
<!-- SearchBarComponent -->
<g id="node4" class="node">
<title>SearchBarComponent</title>
<polygon fill="#ffffb3" stroke="#000000" points="687.6317,-122 548.3683,-122 548.3683,-86 687.6317,-86 687.6317,-122"/>
<text text-anchor="middle" x="618" y="-99.8" font-family="Times,serif" font-size="14.00" fill="#000000">SearchBarComponent</text>
</g>
<!-- SearchBarComponent&#45;&gt;AppModule -->
<g id="edge4" class="edge">
<title>SearchBarComponent&#45;&gt;AppModule</title>
<path fill="none" stroke="#000000" d="M618,-122.1061C618,-122.1061 618,-140.991 618,-140.991"/>
<polygon fill="#000000" stroke="#000000" points="614.5001,-140.9909 618,-150.991 621.5001,-140.991 614.5001,-140.9909"/>
</g>
<!-- ErrorAlertComponent -->
<g id="node5" class="node">
<title>ErrorAlertComponent</title>
<polygon fill="#ffffb3" stroke="#000000" points="529.6303,-122 390.3697,-122 390.3697,-86 529.6303,-86 529.6303,-122"/>
<text text-anchor="middle" x="460" y="-99.8" font-family="Times,serif" font-size="14.00" fill="#000000">ErrorAlertComponent</text>
</g>
<!-- ErrorAlertComponent&#45;&gt;AppModule -->
<g id="edge5" class="edge">
<title>ErrorAlertComponent&#45;&gt;AppModule</title>
<path fill="none" stroke="#000000" d="M460,-122.027C460,-138.3976 460,-160 460,-160 460,-160 566.0737,-160 566.0737,-160"/>
<polygon fill="#000000" stroke="#000000" points="566.0738,-163.5001 576.0737,-160 566.0737,-156.5001 566.0738,-163.5001"/>
</g>
<!-- AppComponent  -->
<g id="node8" class="node">
<title>AppComponent </title>
<polygon fill="#80b1d3" stroke="#000000" points="672.439,-252 563.561,-252 563.561,-216 672.439,-216 672.439,-252"/>
<text text-anchor="middle" x="618" y="-229.8" font-family="Times,serif" font-size="14.00" fill="#000000">AppComponent </text>
</g>
<!-- AppModule&#45;&gt;AppComponent  -->
<g id="edge7" class="edge">
<title>AppModule&#45;&gt;AppComponent </title>
<path fill="none" stroke="#000000" stroke-dasharray="1,5" d="M618,-187.1061C618,-187.1061 618,-205.991 618,-205.991"/>
<polygon fill="#000000" stroke="#000000" points="614.5001,-205.9909 618,-215.991 621.5001,-205.991 614.5001,-205.9909"/>
</g>
<!-- AppStateModule -->
<g id="node7" class="node">
<title>AppStateModule</title>
<polygon fill="#8dd3c7" stroke="#000000" points="365.6499,-122 362.6499,-126 341.6499,-126 338.6499,-122 254.3501,-122 254.3501,-86 365.6499,-86 365.6499,-122"/>
<text text-anchor="middle" x="310" y="-99.8" font-family="Times,serif" font-size="14.00" fill="#000000">AppStateModule</text>
</g>
<!-- AppStateModule&#45;&gt;AppModule -->
<g id="edge6" class="edge">
<title>AppStateModule&#45;&gt;AppModule</title>
<path fill="none" stroke="#000000" d="M310,-122.1061C310,-141.3391 310,-169 310,-169 310,-169 566.1412,-169 566.1412,-169"/>
<polygon fill="#000000" stroke="#000000" points="566.1412,-172.5001 576.1412,-169 566.1412,-165.5001 566.1412,-172.5001"/>
</g>
<!-- NotesConnectorService -->
<g id="node9" class="node">
<title>NotesConnectorService</title>
<ellipse fill="#fdb462" stroke="#000000" cx="127" cy="-104" rx="102.9879" ry="18"/>
<text text-anchor="middle" x="127" y="-99.8" font-family="Times,serif" font-size="14.00" fill="#000000">NotesConnectorService</text>
</g>
<!-- NotesConnectorService&#45;&gt;AppModule -->
<g id="edge8" class="edge">
<title>NotesConnectorService&#45;&gt;AppModule</title>
<path fill="none" stroke="#000000" d="M127,-122.2921C127,-144.2057 127,-178 127,-178 127,-178 566.1376,-178 566.1376,-178"/>
<polygon fill="#000000" stroke="#000000" points="566.1377,-181.5001 576.1376,-178 566.1376,-174.5001 566.1377,-181.5001"/>
</g>
</g>
</svg>
