<?xml version="1.0" encoding="UTF-8" standalone="no"?>
<!DOCTYPE svg PUBLIC "-//W3C//DTD SVG 1.1//EN"
 "http://www.w3.org/Graphics/SVG/1.1/DTD/svg11.dtd">
<!-- Generated by graphviz version 2.40.1 (20161225.0304)
 -->
<!-- Title: dependencies Pages: 1 -->
<svg width="1164pt" height="360pt"
 viewBox="0.00 0.00 1164.00 360.00" xmlns="http://www.w3.org/2000/svg" xmlns:xlink="http://www.w3.org/1999/xlink">
<g id="graph0" class="graph" transform="scale(1 1) rotate(0) translate(4 356)">
<title>dependencies</title>
<polygon fill="#ffffff" stroke="transparent" points="-4,4 -4,-356 1160,-356 1160,4 -4,4"/>
<text text-anchor="start" x="557.0091" y="-42.4" font-family="sans-serif" font-weight="bold" font-size="14.00" fill="#000000">Legend</text>
<polygon fill="#ffffb3" stroke="transparent" points="344,-10 344,-30 364,-30 364,-10 344,-10"/>
<text text-anchor="start" x="367.629" y="-15.4" font-family="sans-serif" font-size="14.00" fill="#000000"> &#160;Declarations</text>
<polygon fill="#8dd3c7" stroke="transparent" points="457,-10 457,-30 477,-30 477,-10 457,-10"/>
<text text-anchor="start" x="480.7251" y="-15.4" font-family="sans-serif" font-size="14.00" fill="#000000"> &#160;Module</text>
<polygon fill="#80b1d3" stroke="transparent" points="543,-10 543,-30 563,-30 563,-10 543,-10"/>
<text text-anchor="start" x="566.7812" y="-15.4" font-family="sans-serif" font-size="14.00" fill="#000000"> &#160;Bootstrap</text>
<polygon fill="#fdb462" stroke="transparent" points="640,-10 640,-30 660,-30 660,-10 640,-10"/>
<text text-anchor="start" x="663.6732" y="-15.4" font-family="sans-serif" font-size="14.00" fill="#000000"> &#160;Providers</text>
<polygon fill="#fb8072" stroke="transparent" points="736,-10 736,-30 756,-30 756,-10 736,-10"/>
<text text-anchor="start" x="759.7258" y="-15.4" font-family="sans-serif" font-size="14.00" fill="#000000"> &#160;Exports</text>
<g id="clust1" class="cluster">
<title>cluster_AppModule</title>
<polygon fill="none" stroke="#000000" stroke-dasharray="1,5" points="8,-146 8,-344 1148,-344 1148,-146 8,-146"/>
</g>
<g id="clust2" class="cluster">
<title>cluster_AppModule_declarations</title>
<polygon fill="none" stroke="#000000" points="382,-154 382,-206 1140,-206 1140,-154 382,-154"/>
</g>
<g id="clust8" class="cluster">
<title>cluster_AppModule_imports</title>
<polygon fill="none" stroke="#000000" points="246,-154 246,-206 374,-206 374,-154 246,-154"/>
</g>
<g id="clust10" class="cluster">
<title>cluster_AppModule_bootstrap</title>
<polygon fill="none" stroke="#000000" points="556,-284 556,-336 680,-336 680,-284 556,-284"/>
</g>
<g id="clust11" class="cluster">
<title>cluster_AppModule_providers</title>
<polygon fill="none" stroke="#000000" points="16,-154 16,-206 238,-206 238,-154 16,-154"/>
</g>
<g id="clust12" class="cluster">
<title>cluster_AppStateModule</title>
<polygon fill="none" stroke="#000000" stroke-dasharray="1,5" points="233,-70 233,-138 387,-138 387,-70 233,-70"/>
</g>
<g id="clust14" class="cluster">
<title>cluster_AppStateModule_imports</title>
<polygon fill="none" stroke="#000000" points="241,-78 241,-130 379,-130 379,-78 241,-78"/>
</g>
<!-- AppComponent -->
<g id="node1" class="node">
<title>AppComponent</title>
<polygon fill="#ffffb3" stroke="#000000" points="1131.9399,-198 1026.0601,-198 1026.0601,-162 1131.9399,-162 1131.9399,-198"/>
<text text-anchor="middle" x="1079" y="-175.8" font-family="Times,serif" font-size="14.00" fill="#000000">AppComponent</text>
</g>
<!-- AppModule -->
<g id="node6" class="node">
<title>AppModule</title>
<polygon fill="#8dd3c7" stroke="#000000" points="659.6571,-263 656.6571,-267 635.6571,-267 632.6571,-263 576.3429,-263 576.3429,-227 659.6571,-227 659.6571,-263"/>
<text text-anchor="middle" x="618" y="-240.8" font-family="Times,serif" font-size="14.00" fill="#000000">AppModule</text>
</g>
<!-- AppComponent&#45;&gt;AppModule -->
<g id="edge1" class="edge">
<title>AppComponent&#45;&gt;AppModule</title>
<path fill="none" stroke="#000000" d="M1079,-198.2921C1079,-220.2057 1079,-254 1079,-254 1079,-254 669.7237,-254 669.7237,-254"/>
<polygon fill="#000000" stroke="#000000" points="669.7238,-250.5001 659.7237,-254 669.7237,-257.5001 669.7238,-250.5001"/>
</g>
<!-- NotesListComponent -->
<g id="node2" class="node">
<title>NotesListComponent</title>
<polygon fill="#ffffb3" stroke="#000000" points="1007.7674,-198 872.2326,-198 872.2326,-162 1007.7674,-162 1007.7674,-198"/>
<text text-anchor="middle" x="940" y="-175.8" font-family="Times,serif" font-size="14.00" fill="#000000">NotesListComponent</text>
</g>
<!-- NotesListComponent&#45;&gt;AppModule -->
<g id="edge2" class="edge">
<title>NotesListComponent&#45;&gt;AppModule</title>
<path fill="none" stroke="#000000" d="M940,-198.1061C940,-217.3391 940,-245 940,-245 940,-245 669.7658,-245 669.7658,-245"/>
<polygon fill="#000000" stroke="#000000" points="669.7658,-241.5001 659.7658,-245 669.7657,-248.5001 669.7658,-241.5001"/>
</g>
<!-- NoteDetailsComponent -->
<g id="node3" class="node">
<title>NoteDetailsComponent</title>
<polygon fill="#ffffb3" stroke="#000000" points="854.1965,-198 705.8035,-198 705.8035,-162 854.1965,-162 854.1965,-198"/>
<text text-anchor="middle" x="780" y="-175.8" font-family="Times,serif" font-size="14.00" fill="#000000">NoteDetailsComponent</text>
</g>
<!-- NoteDetailsComponent&#45;&gt;AppModule -->
<g id="edge3" class="edge">
<title>NoteDetailsComponent&#45;&gt;AppModule</title>
<path fill="none" stroke="#000000" d="M780,-198.027C780,-214.3976 780,-236 780,-236 780,-236 669.719,-236 669.719,-236"/>
<polygon fill="#000000" stroke="#000000" points="669.7191,-232.5001 659.719,-236 669.719,-239.5001 669.7191,-232.5001"/>
</g>
<!-- SearchBarComponent -->
<g id="node4" class="node">
<title>SearchBarComponent</title>
<polygon fill="#ffffb3" stroke="#000000" points="687.6317,-198 548.3683,-198 548.3683,-162 687.6317,-162 687.6317,-198"/>
<text text-anchor="middle" x="618" y="-175.8" font-family="Times,serif" font-size="14.00" fill="#000000">SearchBarComponent</text>
</g>
<!-- SearchBarComponent&#45;&gt;AppModule -->
<g id="edge4" class="edge">
<title>SearchBarComponent&#45;&gt;AppModule</title>
<path fill="none" stroke="#000000" d="M618,-198.1061C618,-198.1061 618,-216.991 618,-216.991"/>
<polygon fill="#000000" stroke="#000000" points="614.5001,-216.9909 618,-226.991 621.5001,-216.991 614.5001,-216.9909"/>
</g>
<!-- ErrorAlertComponent -->
<g id="node5" class="node">
<title>ErrorAlertComponent</title>
<polygon fill="#ffffb3" stroke="#000000" points="529.6303,-198 390.3697,-198 390.3697,-162 529.6303,-162 529.6303,-198"/>
<text text-anchor="middle" x="460" y="-175.8" font-family="Times,serif" font-size="14.00" fill="#000000">ErrorAlertComponent</text>
</g>
<!-- ErrorAlertComponent&#45;&gt;AppModule -->
<g id="edge5" class="edge">
<title>ErrorAlertComponent&#45;&gt;AppModule</title>
<path fill="none" stroke="#000000" d="M460,-198.027C460,-214.3976 460,-236 460,-236 460,-236 566.0737,-236 566.0737,-236"/>
<polygon fill="#000000" stroke="#000000" points="566.0738,-239.5001 576.0737,-236 566.0737,-232.5001 566.0738,-239.5001"/>
</g>
<!-- AppComponent  -->
<g id="node8" class="node">
<title>AppComponent </title>
<polygon fill="#80b1d3" stroke="#000000" points="672.439,-328 563.561,-328 563.561,-292 672.439,-292 672.439,-328"/>
<text text-anchor="middle" x="618" y="-305.8" font-family="Times,serif" font-size="14.00" fill="#000000">AppComponent </text>
</g>
<!-- AppModule&#45;&gt;AppComponent  -->
<g id="edge7" class="edge">
<title>AppModule&#45;&gt;AppComponent </title>
<path fill="none" stroke="#000000" stroke-dasharray="1,5" d="M618,-263.1061C618,-263.1061 618,-281.991 618,-281.991"/>
<polygon fill="#000000" stroke="#000000" points="614.5001,-281.9909 618,-291.991 621.5001,-281.991 614.5001,-281.9909"/>
</g>
<!-- AppStateModule -->
<g id="node7" class="node">
<title>AppStateModule</title>
<polygon fill="#8dd3c7" stroke="#000000" points="365.6499,-198 362.6499,-202 341.6499,-202 338.6499,-198 254.3501,-198 254.3501,-162 365.6499,-162 365.6499,-198"/>
<text text-anchor="middle" x="310" y="-175.8" font-family="Times,serif" font-size="14.00" fill="#000000">AppStateModule</text>
</g>
<!-- AppStateModule&#45;&gt;AppModule -->
<g id="edge6" class="edge">
<title>AppStateModule&#45;&gt;AppModule</title>
<path fill="none" stroke="#000000" d="M310,-198.1061C310,-217.3391 310,-245 310,-245 310,-245 566.1412,-245 566.1412,-245"/>
<polygon fill="#000000" stroke="#000000" points="566.1412,-248.5001 576.1412,-245 566.1412,-241.5001 566.1412,-248.5001"/>
</g>
<!-- NotesConnectorService -->
<g id="node9" class="node">
<title>NotesConnectorService</title>
<ellipse fill="#fdb462" stroke="#000000" cx="127" cy="-180" rx="102.9879" ry="18"/>
<text text-anchor="middle" x="127" y="-175.8" font-family="Times,serif" font-size="14.00" fill="#000000">NotesConnectorService</text>
</g>
<!-- NotesConnectorService&#45;&gt;AppModule -->
<g id="edge8" class="edge">
<title>NotesConnectorService&#45;&gt;AppModule</title>
<path fill="none" stroke="#000000" d="M127,-198.2921C127,-220.2057 127,-254 127,-254 127,-254 566.1376,-254 566.1376,-254"/>
<polygon fill="#000000" stroke="#000000" points="566.1377,-257.5001 576.1376,-254 566.1376,-250.5001 566.1377,-257.5001"/>
</g>
<!-- . === false ? .() : [] -->
<g id="node10" class="node">
<title>. === false ? .() : []</title>
<polygon fill="#8dd3c7" stroke="#000000" points="371.3565,-122 368.3565,-126 347.3565,-126 344.3565,-122 248.6435,-122 248.6435,-86 371.3565,-86 371.3565,-122"/>
<text text-anchor="middle" x="310" y="-99.8" font-family="Times,serif" font-size="14.00" fill="#000000">. === false ? .() : []</text>
</g>
<!-- . === false ? .() : []&#45;&gt;AppStateModule -->
<g id="edge9" class="edge">
<title>. === false ? .() : []&#45;&gt;AppStateModule</title>
<path fill="none" stroke="#000000" d="M310,-122.0109C310,-122.0109 310,-151.855 310,-151.855"/>
<polygon fill="#000000" stroke="#000000" points="306.5001,-151.8549 310,-161.855 313.5001,-151.855 306.5001,-151.8549"/>
</g>
</g>
</svg>
